<svg width="24" height="24" viewBox="0 0 24 24" fill="none" xmlns="http://www.w3.org/2000/svg">
<path d="M22.1599 13.0689C22.0156 12.9243 21.8346 12.8217 21.6364 12.7721C21.4383 12.7226 21.2303 12.7279 21.0349 12.7876C19.67 13.1997 18.2189 13.2338 16.8362 12.8863C15.4535 12.5388 14.1909 11.8228 13.1829 10.8144C12.175 9.80609 11.4594 8.54323 11.1125 7.16036C10.7655 5.7775 10.8002 4.32641 11.2127 2.96168C11.2729 2.76622 11.2787 2.55804 11.2294 2.35954C11.1801 2.16105 11.0777 1.97974 10.933 1.83512C10.7884 1.6905 10.6071 1.58804 10.4086 1.53876C10.2101 1.48948 10.0019 1.49524 9.80648 1.55543C7.75373 2.18636 5.95231 3.44877 4.65867 5.16293C3.52739 6.66658 2.83751 8.45573 2.66645 10.3296C2.49538 12.2035 2.84989 14.088 3.6902 15.7717C4.5305 17.4553 5.82336 18.8715 7.4237 19.8612C9.02405 20.851 10.8685 21.3753 12.7502 21.3751C14.9471 21.3816 17.0855 20.6672 18.8374 19.3417C20.5507 18.0467 21.8118 16.2443 22.4412 14.1911C22.5003 13.9961 22.5054 13.7887 22.4558 13.591C22.4063 13.3934 22.304 13.2129 22.1599 13.0689ZM17.4837 17.5445C15.9673 18.6861 14.0896 19.2415 12.1962 19.1087C10.3028 18.9758 8.52103 18.1636 7.17889 16.8215C5.83676 15.4793 5.02452 13.6976 4.89167 11.8042C4.75882 9.91078 5.31429 8.03309 6.45586 6.51668C7.05655 5.72212 7.80099 5.04732 8.65055 4.52731C8.63367 4.76731 8.62523 5.00824 8.62523 5.25012C8.62821 7.93452 9.69591 10.5081 11.5941 12.4063C13.4922 14.3044 16.0658 15.3721 18.7502 15.3751C18.9921 15.3751 19.233 15.3667 19.473 15.3498C18.9533 16.1996 18.2784 16.944 17.4837 17.5445Z" fill="#343A40"/>
</svg>
