<svg width="24" height="24" viewBox="0 0 24 24" fill="none" xmlns="http://www.w3.org/2000/svg">
<path d="M11.0127 4.10327V2.78715C11.0127 2.52535 11.1167 2.27428 11.3018 2.08916C11.4869 1.90405 11.738 1.80005 11.9998 1.80005C12.2616 1.80005 12.5127 1.90405 12.6978 2.08916C12.8829 2.27428 12.9869 2.52535 12.9869 2.78715V4.10327C12.9869 4.36507 12.8829 4.61614 12.6978 4.80126C12.5127 4.98637 12.2616 5.09037 11.9998 5.09037C11.738 5.09037 11.4869 4.98637 11.3018 4.80126C11.1167 4.61614 11.0127 4.36507 11.0127 4.10327ZM17.5934 12C17.5934 13.1063 17.2653 14.1878 16.6507 15.1077C16.036 16.0275 15.1624 16.7445 14.1404 17.1678C13.1183 17.5912 11.9936 17.7019 10.9086 17.4861C9.82351 17.2703 8.82684 16.7376 8.04457 15.9553C7.2623 15.173 6.72956 14.1763 6.51373 13.0913C6.29791 12.0063 6.40868 10.8816 6.83204 9.85949C7.2554 8.8374 7.97234 7.96381 8.8922 7.34918C9.81205 6.73456 10.8935 6.4065 11.9998 6.4065C13.4828 6.40802 14.9047 6.99783 15.9534 8.0465C17.002 9.09516 17.5918 10.517 17.5934 12ZM15.6192 12C15.6192 11.2842 15.4069 10.5844 15.0092 9.98924C14.6115 9.39404 14.0462 8.93014 13.3849 8.6562C12.7235 8.38226 11.9958 8.31059 11.2937 8.45024C10.5916 8.58989 9.94671 8.9346 9.44053 9.44078C8.93436 9.94695 8.58965 10.5919 8.44999 11.2939C8.31034 11.996 8.38202 12.7238 8.65596 13.3851C8.9299 14.0465 9.3938 14.6117 9.989 15.0094C10.5842 15.4071 11.284 15.6194 11.9998 15.6194C12.9594 15.6183 13.8793 15.2366 14.5579 14.5581C15.2364 13.8796 15.6181 12.9596 15.6192 12ZM5.70789 7.10487C5.7997 7.19669 5.90871 7.26953 6.02868 7.31922C6.14865 7.36891 6.27723 7.39449 6.40708 7.39449C6.53693 7.39449 6.66551 7.36891 6.78548 7.31922C6.90545 7.26953 7.01445 7.19669 7.10627 7.10487C7.19809 7.01305 7.27093 6.90405 7.32062 6.78408C7.37031 6.66411 7.39589 6.53553 7.39589 6.40568C7.39589 6.27583 7.37031 6.14724 7.32062 6.02728C7.27093 5.90731 7.19809 5.7983 7.10627 5.70648L6.11918 4.71939C5.93374 4.53395 5.68223 4.42977 5.41998 4.42977C5.15773 4.42977 4.90623 4.53395 4.72079 4.71939C4.53535 4.90483 4.43117 5.15633 4.43117 5.41858C4.43117 5.68083 4.53535 5.93234 4.72079 6.11777L5.70789 7.10487ZM5.70789 16.8936L4.72079 17.8807C4.62897 17.9725 4.55613 18.0815 4.50644 18.2015C4.45675 18.3214 4.43117 18.45 4.43117 18.5799C4.43117 18.7097 4.45675 18.8383 4.50644 18.9583C4.55613 19.0782 4.62897 19.1872 4.72079 19.2791C4.90623 19.4645 5.15773 19.5687 5.41998 19.5687C5.54983 19.5687 5.67842 19.5431 5.79838 19.4934C5.91835 19.4437 6.02736 19.3709 6.11918 19.2791L7.10627 18.292C7.29171 18.1065 7.39589 17.855 7.39589 17.5928C7.39589 17.3305 7.29171 17.079 7.10627 16.8936C6.92083 16.7081 6.66933 16.604 6.40708 16.604C6.14483 16.604 5.89332 16.7081 5.70789 16.8936ZM17.5934 7.3936C17.723 7.3937 17.8514 7.36825 17.9713 7.31871C18.0911 7.26917 18.2 7.19651 18.2917 7.10487L19.2788 6.11777C19.3706 6.02596 19.4435 5.91695 19.4932 5.79698C19.5429 5.67701 19.5684 5.54843 19.5684 5.41858C19.5684 5.28873 19.5429 5.16015 19.4932 5.04018C19.4435 4.92021 19.3706 4.81121 19.2788 4.71939C19.187 4.62757 19.078 4.55473 18.958 4.50504C18.8381 4.45535 18.7095 4.42977 18.5796 4.42977C18.4498 4.42977 18.3212 4.45535 18.2012 4.50504C18.0813 4.55473 17.9723 4.62757 17.8804 4.71939L16.8933 5.70648C16.7545 5.84455 16.6598 6.02079 16.6214 6.21281C16.5829 6.40483 16.6025 6.60393 16.6775 6.7848C16.7526 6.96568 16.8797 7.12014 17.0428 7.22855C17.2059 7.33695 17.3975 7.39441 17.5934 7.3936ZM18.2917 16.8952C18.1063 16.7098 17.8548 16.6056 17.5925 16.6056C17.3303 16.6056 17.0788 16.7098 16.8933 16.8952C16.7079 17.0807 16.6037 17.3322 16.6037 17.5944C16.6037 17.8567 16.7079 18.1082 16.8933 18.2936L17.8804 19.2807C18.0659 19.4661 18.3174 19.5703 18.5796 19.5703C18.8419 19.5703 19.0934 19.4661 19.2788 19.2807C19.4643 19.0953 19.5684 18.8438 19.5684 18.5815C19.5684 18.3193 19.4643 18.0678 19.2788 17.8823L18.2917 16.8952ZM5.09013 12C5.09013 11.7383 4.98613 11.4872 4.80101 11.3021C4.6159 11.1169 4.36482 11.013 4.10303 11.013H2.7869C2.52511 11.013 2.27404 11.1169 2.08892 11.3021C1.9038 11.4872 1.7998 11.7383 1.7998 12C1.7998 12.2618 1.9038 12.5129 2.08892 12.698C2.27404 12.8831 2.52511 12.9871 2.7869 12.9871H4.10303C4.36482 12.9871 4.6159 12.8831 4.80101 12.698C4.98613 12.5129 5.09013 12.2618 5.09013 12ZM11.9998 18.9097C11.738 18.9097 11.4869 19.0137 11.3018 19.1988C11.1167 19.384 11.0127 19.635 11.0127 19.8968V21.213C11.0127 21.4747 11.1167 21.7258 11.3018 21.9109C11.4869 22.096 11.738 22.2 11.9998 22.2C12.2616 22.2 12.5127 22.096 12.6978 21.9109C12.8829 21.7258 12.9869 21.4747 12.9869 21.213V19.8968C12.9869 19.635 12.8829 19.384 12.6978 19.1988C12.5127 19.0137 12.2616 18.9097 11.9998 18.9097ZM21.2127 11.013H19.8966C19.6348 11.013 19.3837 11.1169 19.1986 11.3021C19.0135 11.4872 18.9095 11.7383 18.9095 12C18.9095 12.2618 19.0135 12.5129 19.1986 12.698C19.3837 12.8831 19.6348 12.9871 19.8966 12.9871H21.2127C21.4745 12.9871 21.7256 12.8831 21.9107 12.698C22.0958 12.5129 22.1998 12.2618 22.1998 12C22.1998 11.7383 22.0958 11.4872 21.9107 11.3021C21.7256 11.1169 21.4745 11.013 21.2127 11.013Z" fill="white"/>
</svg>
