<svg width="24" height="24" viewBox="0 0 24 24" fill="none" xmlns="http://www.w3.org/2000/svg">
<path d="M20.7633 11.4914C21.157 12.0117 21.375 12.6492 21.375 13.3125C21.375 14.3648 20.7867 15.3609 19.8398 15.9164C19.5961 16.0594 19.3185 16.1346 19.0359 16.1344H13.4156L13.5563 19.0148C13.5891 19.7109 13.343 20.3719 12.8648 20.8758C12.6302 21.1241 12.3471 21.3218 12.0331 21.4564C11.7191 21.591 11.3807 21.6599 11.0391 21.6586C9.82031 21.6586 8.74219 20.8383 8.41875 19.6641L6.40547 12.375H3.375C2.96016 12.375 2.625 12.0398 2.625 11.625V3.09374C2.625 2.67889 2.96016 2.34374 3.375 2.34374H17.468C17.6836 2.34374 17.8945 2.38593 18.0891 2.4703C19.2047 2.94608 19.9242 4.03593 19.9242 5.2453C19.9242 5.54061 19.882 5.83124 19.7977 6.11249C20.1914 6.6328 20.4094 7.2703 20.4094 7.93358C20.4094 8.22889 20.3672 8.51952 20.2828 8.80077C20.6766 9.32108 20.8945 9.95858 20.8945 10.6219C20.8898 10.9172 20.8477 11.2101 20.7633 11.4914ZM4.3125 4.03124V10.6875H6.21094V4.03124H4.3125ZM19.2281 12.3047L18.7148 11.8594L19.0406 11.264C19.148 11.0679 19.2036 10.8478 19.2023 10.6242C19.2023 10.2375 19.0336 9.86952 18.743 9.61639L18.2297 9.17108L18.5555 8.57577C18.6628 8.37967 18.7185 8.15947 18.7172 7.93593C18.7172 7.54921 18.5484 7.18124 18.2578 6.92811L17.7445 6.4828L18.0703 5.88749C18.1776 5.69139 18.2333 5.47119 18.232 5.24765C18.232 4.72264 17.9227 4.24921 17.4445 4.03358H7.71094V10.7625L10.043 19.2117C10.1031 19.4283 10.2322 19.6193 10.4107 19.7559C10.5891 19.8925 10.8073 19.9672 11.032 19.9687C11.2102 19.9687 11.3859 19.9172 11.5266 19.8117C11.7586 19.6383 11.8828 19.3758 11.8687 19.0969L11.6437 14.4469H19.0125C19.4297 14.1914 19.6875 13.7601 19.6875 13.3125C19.6875 12.9258 19.5188 12.5601 19.2281 12.3047Z" fill="#343A40"/>
</svg>
