<svg width="100" height="100" viewBox="0 0 100 100" fill="none" xmlns="http://www.w3.org/2000/svg">
<circle cx="50" cy="50" r="50" fill="white"/>
<path d="M70 40C70 45.3043 67.8929 50.3914 64.1421 54.1421C60.3914 57.8929 55.3043 60 50 60C44.6957 60 39.6086 57.8929 35.8579 54.1421C32.1071 50.3914 30 45.3043 30 40C30 34.6957 32.1071 29.6086 35.8579 25.8579C39.6086 22.1071 44.6957 20 50 20C55.3043 20 60.3914 22.1071 64.1421 25.8579C67.8929 29.6086 70 34.6957 70 40Z" fill="#D9D9D9"/>
<path fill-rule="evenodd" clip-rule="evenodd" d="M47.96 99.96C21.2925 98.89 0 76.93 0 50C0 22.385 22.385 0 50 0C77.615 0 100 22.385 100 50C100 77.615 77.615 100 50 100C49.7717 100.001 49.5433 100.001 49.315 100C48.8625 100 48.41 99.985 47.96 99.96ZM17.915 81.55C17.5412 80.4764 17.4139 79.3324 17.5427 78.203C17.6715 77.0735 18.053 75.9875 18.6589 75.0257C19.2649 74.0638 20.0797 73.2508 21.0428 72.6469C22.006 72.043 23.0927 71.6639 24.2225 71.5375C43.7125 69.38 56.4075 69.575 75.8025 71.5825C76.9338 71.7003 78.0232 72.0747 78.9879 72.6772C79.9526 73.2797 80.7671 74.0944 81.3694 75.0593C81.9716 76.0241 82.3457 77.1137 82.4633 78.245C82.5808 79.3763 82.4386 80.5195 82.0475 81.5875C90.3598 73.1772 95.0149 61.8249 95 50C95 25.1475 74.8525 5 50 5C25.1475 5 5 25.1475 5 50C5 62.29 9.9275 73.43 17.915 81.55Z" fill="#D9D9D9"/>
</svg>
